<svg id="svg" version="1.1" xmlns="http://www.w3.org/2000/svg" xmlns:xlink="http://www.w3.org/1999/xlink" width="400" height="400" viewBox="0, 0, 400,400"><g id="svgg"><path id="path0" d="M264.014 200.435 C 212.598 205.385,183.667 262.767,210.295 306.981 C 238.653 354.068,307.920 351.858,333.231 303.059 C 358.785 253.793,319.212 195.121,264.014 200.435 M281.200 218.747 C 320.124 227.630,334.778 274.734,307.538 303.411 C 280.132 332.261,231.466 319.581,221.409 280.969 C 212.069 245.113,245.282 210.550,281.200 218.747 " stroke="none" fill="#a8ae86" fill-rule="evenodd"></path><path id="path1" d="M127.910 43.388 C 82.933 49.809,50.800 86.403,50.800 131.200 C 50.800 209.873,145.983 249.269,201.626 193.626 C 249.714 145.539,228.110 64.275,162.322 45.778 C 152.930 43.137,137.278 42.050,127.910 43.388 M146.810 63.221 C 193.752 69.054,220.916 119.173,199.854 161.093 C 173.279 213.988,97.087 210.505,75.400 155.403 C 56.795 108.129,96.432 56.962,146.810 63.221 M264.700 200.282 C 265.195 200.378,266.005 200.378,266.500 200.282 C 266.995 200.187,266.590 200.109,265.600 200.109 C 264.610 200.109,264.205 200.187,264.700 200.282 M275.105 200.283 C 275.602 200.379,276.322 200.375,276.705 200.275 C 277.087 200.175,276.680 200.096,275.800 200.101 C 274.920 200.105,274.607 200.187,275.105 200.283 M286.600 202.026 C 288.140 202.441,289.575 202.727,289.788 202.661 C 290.237 202.522,285.092 201.182,284.318 201.236 C 284.033 201.256,285.060 201.612,286.600 202.026 M291.000 203.200 C 291.440 203.389,292.070 203.544,292.400 203.544 C 292.778 203.544,292.704 203.417,292.200 203.200 C 291.760 203.011,291.130 202.856,290.800 202.856 C 290.422 202.856,290.496 202.983,291.000 203.200 M243.200 205.400 C 242.650 205.714,242.380 205.972,242.600 205.972 C 242.820 205.972,243.450 205.714,244.000 205.400 C 244.550 205.086,244.820 204.828,244.600 204.828 C 244.380 204.828,243.750 205.086,243.200 205.400 M300.000 206.600 C 300.990 207.130,301.980 207.564,302.200 207.564 C 302.420 207.564,301.790 207.130,300.800 206.600 C 299.810 206.070,298.820 205.636,298.600 205.636 C 298.380 205.636,299.010 206.070,300.000 206.600 M239.100 207.226 C 237.835 207.879,236.800 208.503,236.800 208.612 C 236.800 208.791,241.560 206.525,241.967 206.153 C 242.490 205.673,241.098 206.194,239.100 207.226 M303.800 208.281 C 304.020 208.508,305.100 209.197,306.200 209.813 C 307.300 210.428,308.020 210.746,307.800 210.519 C 307.580 210.292,306.500 209.603,305.400 208.987 C 304.300 208.372,303.580 208.054,303.800 208.281 M232.400 211.140 C 224.641 216.157,215.858 224.787,211.782 231.400 C 210.623 233.280,211.305 232.487,214.019 228.800 C 218.796 222.308,226.782 214.899,233.208 210.995 C 235.242 209.759,235.957 209.200,235.500 209.200 C 235.445 209.200,234.050 210.073,232.400 211.140 M312.000 213.339 C 312.000 213.446,312.765 214.129,313.700 214.859 C 314.635 215.588,315.146 215.865,314.836 215.474 C 314.219 214.697,312.000 213.027,312.000 213.339 M315.600 216.083 C 315.600 216.169,317.355 217.838,319.500 219.790 C 321.645 221.743,322.500 222.394,321.400 221.238 C 319.455 219.193,315.600 215.767,315.600 216.083 M268.500 217.896 C 269.765 217.975,271.835 217.975,273.100 217.896 C 274.365 217.816,273.330 217.751,270.800 217.751 C 268.270 217.751,267.235 217.816,268.500 217.896 M261.800 218.420 C 261.011 218.635,261.422 218.670,263.000 218.523 C 264.320 218.400,265.475 218.232,265.567 218.150 C 265.864 217.882,263.034 218.085,261.800 218.420 M276.305 218.283 C 276.802 218.379,277.522 218.375,277.905 218.275 C 278.287 218.175,277.880 218.096,277.000 218.101 C 276.120 218.105,275.807 218.187,276.305 218.283 M286.800 220.600 C 288.626 221.303,289.345 221.293,287.800 220.586 C 287.140 220.283,286.330 220.042,286.000 220.048 C 285.670 220.055,286.030 220.303,286.800 220.600 M247.900 223.025 C 245.975 224.006,244.400 224.898,244.400 225.008 C 244.400 225.187,251.560 221.729,251.967 221.354 C 252.550 220.815,250.921 221.485,247.900 223.025 M290.000 221.800 C 290.550 222.114,291.180 222.372,291.400 222.372 C 291.620 222.372,291.350 222.114,290.800 221.800 C 290.250 221.486,289.620 221.228,289.400 221.228 C 289.180 221.228,289.450 221.486,290.000 221.800 M324.965 225.700 C 326.028 226.965,326.980 228.000,327.082 228.000 C 327.379 228.000,324.977 225.077,323.960 224.200 C 323.450 223.760,323.902 224.435,324.965 225.700 M296.000 224.512 C 296.000 224.625,296.945 225.320,298.100 226.058 C 299.255 226.796,301.190 228.195,302.400 229.167 C 303.610 230.139,304.240 230.523,303.800 230.020 C 302.699 228.761,296.000 224.031,296.000 224.512 M241.400 227.035 L 240.200 228.066 241.500 227.206 C 242.215 226.733,242.800 226.268,242.800 226.173 C 242.800 225.873,242.631 225.978,241.400 227.035 M235.646 231.900 L 231.749 235.800 235.375 232.418 C 237.369 230.558,239.264 228.803,239.586 228.518 C 239.908 228.233,240.030 228.000,239.858 228.000 C 239.685 228.000,237.790 229.755,235.646 231.900 M329.437 231.700 C 330.249 232.965,330.988 234.000,331.079 234.000 C 331.347 234.000,329.900 231.682,328.890 230.494 C 328.379 229.892,328.625 230.435,329.437 231.700 M307.832 234.200 C 311.478 238.451,312.015 239.012,310.897 237.400 C 310.438 236.740,308.867 234.940,307.404 233.400 C 304.796 230.654,304.804 230.670,307.832 234.200 M210.553 233.300 C 209.176 235.636,209.086 235.835,209.787 235.000 C 210.600 234.032,211.300 232.800,211.038 232.800 C 210.933 232.800,210.715 233.025,210.553 233.300 M331.800 235.600 C 332.141 236.260,332.511 236.800,332.621 236.800 C 332.731 236.800,332.541 236.260,332.200 235.600 C 331.859 234.940,331.489 234.400,331.379 234.400 C 331.269 234.400,331.459 234.940,331.800 235.600 M230.095 237.900 C 228.895 239.435,227.249 241.960,227.683 241.600 C 228.110 241.246,231.604 236.400,231.433 236.400 C 231.342 236.400,230.740 237.075,230.095 237.900 M207.781 238.037 C 207.429 238.718,207.212 239.345,207.299 239.432 C 207.386 239.519,207.756 238.962,208.122 238.195 C 208.944 236.470,208.659 236.338,207.781 238.037 M334.081 239.791 C 334.559 240.776,335.019 241.514,335.103 241.430 C 335.284 241.249,333.668 238.000,333.397 238.000 C 333.294 238.000,333.602 238.806,334.081 239.791 M313.196 241.175 C 314.088 242.592,314.931 243.852,315.071 243.975 C 315.626 244.466,313.446 240.823,312.541 239.748 C 312.010 239.117,312.305 239.759,313.196 241.175 M205.050 243.991 C 204.147 246.247,204.287 246.583,205.237 244.442 C 205.666 243.475,205.945 242.612,205.858 242.525 C 205.771 242.438,205.408 243.098,205.050 243.991 M224.981 246.037 C 224.629 246.718,224.412 247.345,224.499 247.432 C 224.586 247.519,224.956 246.962,225.322 246.195 C 226.144 244.470,225.859 244.338,224.981 246.037 M337.461 248.000 C 337.917 249.802,338.852 252.003,338.584 250.644 C 338.459 250.008,338.098 248.928,337.782 248.244 C 337.351 247.308,337.271 247.248,337.461 248.000 M316.828 247.800 C 316.828 248.020,317.086 248.650,317.400 249.200 C 317.714 249.750,317.972 250.020,317.972 249.800 C 317.972 249.580,317.714 248.950,317.400 248.400 C 317.086 247.850,316.828 247.580,316.828 247.800 M222.844 251.244 C 222.598 251.951,222.466 252.600,222.552 252.685 C 222.638 252.771,222.909 252.262,223.156 251.556 C 223.402 250.849,223.534 250.200,223.448 250.115 C 223.362 250.029,223.091 250.538,222.844 251.244 M221.829 254.229 C 221.681 254.815,221.638 255.372,221.732 255.466 C 221.827 255.560,222.024 255.158,222.171 254.571 C 222.319 253.985,222.362 253.428,222.268 253.334 C 222.173 253.240,221.976 253.642,221.829 254.229 M201.422 255.822 C 201.272 256.625,201.228 257.362,201.326 257.460 C 201.424 257.557,201.627 256.981,201.778 256.178 C 201.928 255.375,201.972 254.638,201.874 254.540 C 201.776 254.443,201.573 255.019,201.422 255.822 M320.893 262.800 C 320.893 263.570,320.975 263.885,321.076 263.500 C 321.176 263.115,321.176 262.485,321.076 262.100 C 320.975 261.715,320.893 262.030,320.893 262.800 M220.093 264.000 C 220.093 264.770,220.175 265.085,220.276 264.700 C 220.376 264.315,220.376 263.685,220.276 263.300 C 220.175 262.915,220.093 263.230,220.093 264.000 M340.901 264.200 C 340.905 265.080,340.987 265.393,341.083 264.895 C 341.179 264.398,341.175 263.678,341.075 263.295 C 340.975 262.913,340.896 263.320,340.901 264.200 M200.109 265.600 C 200.109 266.590,200.187 266.995,200.282 266.500 C 200.378 266.005,200.378 265.195,200.282 264.700 C 200.187 264.205,200.109 264.610,200.109 265.600 M321.342 268.600 C 321.341 270.580,321.408 271.440,321.492 270.512 C 321.576 269.584,321.577 267.964,321.495 266.912 C 321.412 265.860,321.343 266.620,321.342 268.600 M341.340 270.800 C 341.340 272.670,341.409 273.435,341.493 272.500 C 341.577 271.565,341.577 270.035,341.493 269.100 C 341.409 268.165,341.340 268.930,341.340 270.800 M220.093 272.800 C 220.093 273.570,220.175 273.885,220.276 273.500 C 220.376 273.115,220.376 272.485,220.276 272.100 C 220.175 271.715,220.093 272.030,220.093 272.800 M320.901 274.200 C 320.905 275.080,320.987 275.393,321.083 274.895 C 321.179 274.398,321.175 273.678,321.075 273.295 C 320.975 272.913,320.896 273.320,320.901 274.200 M200.101 275.800 C 200.105 276.680,200.187 276.993,200.283 276.495 C 200.379 275.998,200.375 275.278,200.275 274.895 C 200.175 274.513,200.096 274.920,200.101 275.800 M340.909 277.200 C 340.909 278.190,340.987 278.595,341.082 278.100 C 341.178 277.605,341.178 276.795,341.082 276.300 C 340.987 275.805,340.909 276.210,340.909 277.200 M221.256 280.400 C 221.256 280.730,221.411 281.360,221.600 281.800 C 221.817 282.304,221.944 282.378,221.944 282.000 C 221.944 281.670,221.789 281.040,221.600 280.600 C 221.383 280.096,221.256 280.022,221.256 280.400 M318.480 284.680 C 318.230 285.494,318.092 286.226,318.173 286.306 C 318.254 286.387,318.536 285.799,318.800 285.000 C 319.064 284.201,319.202 283.469,319.107 283.374 C 319.012 283.278,318.730 283.866,318.480 284.680 M201.236 284.318 C 201.182 285.092,202.522 290.237,202.661 289.788 C 202.727 289.575,202.441 288.140,202.026 286.600 C 201.612 285.060,201.256 284.033,201.236 284.318 M224.000 288.545 C 224.000 288.979,226.387 293.600,226.612 293.600 C 226.722 293.600,226.248 292.475,225.558 291.100 C 224.252 288.494,224.000 288.081,224.000 288.545 M338.229 290.629 C 338.081 291.215,338.038 291.772,338.132 291.866 C 338.227 291.960,338.424 291.558,338.571 290.971 C 338.719 290.385,338.762 289.828,338.668 289.734 C 338.573 289.640,338.376 290.042,338.229 290.629 M202.856 290.800 C 202.856 291.130,203.011 291.760,203.200 292.200 C 203.417 292.704,203.544 292.778,203.544 292.400 C 203.544 292.070,203.389 291.440,203.200 291.000 C 202.983 290.496,202.856 290.422,202.856 290.800 M337.046 294.246 C 336.692 295.285,336.472 296.205,336.556 296.290 C 336.641 296.374,337.000 295.593,337.354 294.554 C 337.708 293.515,337.928 292.595,337.844 292.510 C 337.759 292.426,337.400 293.207,337.046 294.246 M229.186 297.780 C 229.859 298.758,230.601 299.677,230.834 299.821 C 231.068 299.965,230.599 299.165,229.792 298.042 C 227.990 295.534,227.493 295.319,229.186 297.780 M309.000 301.283 C 306.498 304.208,304.558 306.025,299.990 309.726 C 298.877 310.627,298.997 310.588,300.595 309.526 C 302.811 308.053,309.761 301.325,311.158 299.300 C 312.575 297.245,312.012 297.762,309.000 301.283 M206.034 299.400 C 206.034 299.620,206.378 300.430,206.800 301.200 C 207.222 301.970,207.566 302.420,207.566 302.200 C 207.566 301.980,207.222 301.170,206.800 300.400 C 206.378 299.630,206.034 299.180,206.034 299.400 M333.683 302.213 C 332.982 303.636,332.493 304.800,332.598 304.800 C 332.866 304.800,335.285 299.951,335.106 299.772 C 335.025 299.692,334.385 300.790,333.683 302.213 M233.200 302.800 C 234.344 304.120,235.412 305.200,235.575 305.200 C 235.738 305.200,234.881 304.120,233.672 302.800 C 232.463 301.480,231.394 300.400,231.297 300.400 C 231.200 300.400,232.056 301.480,233.200 302.800 M209.077 305.601 C 209.695 306.701,210.536 308.006,210.947 308.501 L 211.695 309.400 211.114 308.400 C 210.794 307.850,210.035 306.545,209.428 305.500 C 208.821 304.455,208.241 303.600,208.139 303.600 C 208.037 303.600,208.459 304.500,209.077 305.601 M236.035 305.700 C 236.128 305.755,236.833 306.340,237.602 307.000 L 239.000 308.200 237.825 306.900 C 237.179 306.185,236.474 305.600,236.258 305.600 C 236.043 305.600,235.943 305.645,236.035 305.700 M330.065 308.700 C 329.140 310.185,328.816 310.883,329.345 310.252 C 330.324 309.083,332.176 306.000,331.899 306.000 C 331.815 306.000,330.990 307.215,330.065 308.700 M239.398 308.396 C 239.631 308.773,243.423 311.435,244.800 312.189 C 245.993 312.842,244.588 311.725,241.873 309.861 C 240.373 308.831,239.259 308.172,239.398 308.396 M326.027 314.300 C 324.853 315.785,324.342 316.587,324.891 316.081 C 325.860 315.191,328.596 311.600,328.306 311.600 C 328.227 311.600,327.201 312.815,326.027 314.300 M213.954 313.136 C 214.399 313.760,215.083 314.525,215.474 314.836 C 215.865 315.146,215.588 314.635,214.859 313.700 C 213.374 311.796,212.702 311.377,213.954 313.136 M293.200 313.600 C 291.550 314.458,290.339 315.169,290.510 315.180 C 290.935 315.207,296.400 312.438,296.400 312.195 C 296.400 311.925,296.532 311.867,293.200 313.600 M246.400 312.997 C 246.400 313.268,249.649 314.884,249.830 314.703 C 249.914 314.619,249.176 314.159,248.191 313.681 C 247.206 313.202,246.400 312.894,246.400 312.997 M217.594 317.516 C 219.496 319.874,224.988 324.992,227.660 326.899 C 229.935 328.521,229.272 327.852,225.800 325.022 C 224.260 323.767,221.399 321.089,219.443 319.070 C 217.264 316.821,216.547 316.219,217.594 317.516 M258.706 317.816 C 259.645 318.111,261.265 318.451,262.306 318.572 C 263.599 318.721,263.184 318.546,261.000 318.018 C 257.321 317.130,256.218 317.033,258.706 317.816 M282.400 317.600 C 281.596 317.857,281.557 317.923,282.200 317.932 C 282.640 317.938,283.360 317.789,283.800 317.600 C 284.819 317.162,283.768 317.162,282.400 317.600 M320.790 320.222 C 319.145 321.883,316.405 324.346,314.700 325.694 C 311.236 328.433,310.625 329.142,313.467 327.125 C 315.291 325.830,324.406 317.248,323.990 317.216 C 323.874 317.207,322.434 318.560,320.790 320.222 M266.105 319.087 C 266.714 319.179,267.614 319.177,268.105 319.082 C 268.597 318.987,268.100 318.911,267.000 318.914 C 265.900 318.917,265.497 318.995,266.105 319.087 M273.305 319.087 C 273.914 319.179,274.814 319.177,275.305 319.082 C 275.797 318.987,275.300 318.911,274.200 318.914 C 273.100 318.917,272.697 318.995,273.305 319.087 M230.494 328.890 C 231.682 329.900,234.000 331.347,234.000 331.079 C 234.000 330.988,232.965 330.249,231.700 329.437 C 230.435 328.625,229.892 328.379,230.494 328.890 M309.681 329.372 C 307.823 330.685,307.562 331.061,309.131 330.162 C 309.863 329.743,310.650 329.175,310.880 328.900 C 311.471 328.193,311.193 328.302,309.681 329.372 M234.400 331.379 C 234.400 331.489,234.940 331.859,235.600 332.200 C 236.260 332.541,236.800 332.731,236.800 332.621 C 236.800 332.511,236.260 332.141,235.600 331.800 C 234.940 331.459,234.400 331.269,234.400 331.379 M302.000 333.800 C 300.570 334.549,299.540 335.170,299.711 335.181 C 300.137 335.207,304.800 332.837,304.800 332.594 C 304.800 332.325,304.894 332.285,302.000 333.800 M238.000 333.396 C 238.000 333.670,240.449 334.884,240.632 334.701 C 240.719 334.614,240.162 334.244,239.395 333.878 C 238.628 333.512,238.000 333.295,238.000 333.396 M242.000 335.400 C 242.550 335.714,243.180 335.972,243.400 335.972 C 243.620 335.972,243.350 335.714,242.800 335.400 C 242.250 335.086,241.620 334.828,241.400 334.828 C 241.180 334.828,241.450 335.086,242.000 335.400 M293.400 337.414 C 292.400 337.896,292.366 337.951,293.200 337.748 C 294.333 337.471,295.607 336.821,295.000 336.830 C 294.780 336.833,294.060 337.096,293.400 337.414 M248.244 337.782 C 248.928 338.098,250.008 338.459,250.644 338.584 C 251.633 338.779,251.598 338.733,250.400 338.263 C 248.240 337.416,246.713 337.076,248.244 337.782 M290.200 338.400 C 289.696 338.617,289.622 338.744,290.000 338.744 C 290.330 338.744,290.960 338.589,291.400 338.400 C 291.904 338.183,291.978 338.056,291.600 338.056 C 291.270 338.056,290.640 338.211,290.200 338.400 M263.500 341.082 C 263.995 341.178,264.805 341.178,265.300 341.082 C 265.795 340.987,265.390 340.909,264.400 340.909 C 263.410 340.909,263.005 340.987,263.500 341.082 M276.305 341.083 C 276.802 341.179,277.522 341.175,277.905 341.075 C 278.287 340.975,277.880 340.896,277.000 340.901 C 276.120 340.905,275.807 340.987,276.305 341.083 M269.100 341.493 C 270.035 341.577,271.565 341.577,272.500 341.493 C 273.435 341.409,272.670 341.340,270.800 341.340 C 268.930 341.340,268.165 341.409,269.100 341.493 " stroke="none" fill="#6a7c6a" fill-rule="evenodd"></path><path id="path2" d="M56.200 0.273 C 51.844 0.831,42.000 3.469,42.000 4.079 C 42.000 4.255,41.799 4.400,41.553 4.400 C 40.730 4.400,33.947 7.618,33.093 8.414 C 32.629 8.846,32.084 9.200,31.883 9.200 C 31.681 9.200,30.716 9.740,29.738 10.400 C 28.760 11.060,27.902 11.600,27.830 11.600 C 27.759 11.600,27.013 12.230,26.172 13.000 C 25.331 13.770,24.431 14.400,24.170 14.400 C 23.910 14.400,23.033 15.210,22.221 16.200 C 21.410 17.190,20.520 18.000,20.243 18.000 C 19.633 18.000,18.000 19.674,18.000 20.299 C 18.000 20.545,17.190 21.410,16.200 22.221 C 15.210 23.033,14.400 23.868,14.400 24.078 C 14.400 24.288,13.433 25.751,12.251 27.330 C 11.068 28.908,9.694 31.010,9.197 32.000 C 8.699 32.990,8.152 33.891,7.981 34.002 C 7.642 34.222,5.075 39.976,4.590 41.600 C 4.426 42.150,4.125 42.707,3.922 42.839 C 3.308 43.234,1.654 49.866,0.801 55.348 C 0.011 60.424,0.000 62.428,0.000 199.977 C -0.000 352.422,-0.144 342.738,2.261 351.600 C 2.828 353.690,3.383 355.805,3.493 356.300 C 3.603 356.795,3.840 357.200,4.020 357.200 C 4.199 357.200,4.467 357.605,4.615 358.100 C 5.030 359.491,7.686 365.375,8.000 365.600 C 8.154 365.710,8.864 366.880,9.578 368.200 C 10.291 369.520,11.218 370.899,11.638 371.264 C 12.057 371.629,12.400 372.053,12.400 372.207 C 12.400 372.360,12.940 373.167,13.600 374.000 C 14.260 374.833,14.800 375.620,14.800 375.747 C 14.800 376.017,23.597 384.800,23.867 384.800 C 24.080 384.800,27.379 387.245,28.764 388.429 C 29.293 388.882,30.778 389.783,32.064 390.432 C 33.349 391.081,34.400 391.789,34.400 392.006 C 34.400 392.223,34.582 392.400,34.804 392.400 C 35.184 392.400,41.050 394.790,44.621 396.399 C 45.512 396.801,48.572 397.640,51.421 398.265 L 56.600 399.400 200.000 399.400 L 343.400 399.400 348.600 398.270 C 351.460 397.649,354.700 396.729,355.800 396.227 C 356.900 395.724,359.555 394.627,361.700 393.789 C 363.845 392.951,365.600 392.125,365.600 391.954 C 365.600 391.783,366.878 390.972,368.440 390.151 C 370.001 389.331,371.371 388.421,371.482 388.130 C 371.594 387.838,371.865 387.600,372.085 387.600 C 372.305 387.600,373.167 387.060,374.000 386.400 C 374.833 385.740,375.676 385.200,375.873 385.200 C 376.070 385.200,376.917 384.378,377.757 383.374 C 378.596 382.370,379.717 381.384,380.248 381.182 C 380.780 380.980,381.372 380.406,381.565 379.907 C 381.758 379.408,382.700 378.262,383.658 377.359 C 385.791 375.351,388.768 371.322,390.453 368.164 C 391.145 366.868,391.945 365.625,392.230 365.403 C 392.515 365.182,393.422 363.290,394.246 361.200 C 395.069 359.110,395.847 357.310,395.974 357.200 C 396.723 356.550,398.540 349.328,399.409 343.539 C 400.314 337.514,400.300 61.919,399.394 56.096 C 398.428 49.885,396.706 42.910,396.012 42.400 C 395.862 42.290,395.061 40.490,394.230 38.400 C 393.400 36.310,392.503 34.420,392.237 34.200 C 391.971 33.980,391.215 32.810,390.557 31.600 C 388.802 28.375,388.338 27.675,386.900 26.083 C 386.185 25.291,385.600 24.461,385.600 24.238 C 385.600 24.015,384.835 23.063,383.900 22.123 C 382.965 21.184,381.570 19.773,380.800 18.990 C 378.151 16.293,376.196 14.569,374.500 13.431 C 373.565 12.804,372.800 12.149,372.800 11.975 C 372.800 11.801,372.305 11.399,371.700 11.081 C 368.567 9.435,366.813 8.403,366.081 7.776 C 365.633 7.393,364.667 6.858,363.934 6.586 C 361.415 5.652,358.200 4.200,357.972 3.893 C 357.513 3.274,348.788 1.008,344.653 0.433 C 341.724 0.025,59.356 -0.131,56.200 0.273 M154.094 43.948 C 224.896 56.557,252.325 142.928,201.626 193.626 C 145.983 249.269,50.800 209.873,50.800 131.200 C 50.800 76.421,100.534 34.410,154.094 43.948 M131.600 63.075 C 87.427 67.727,59.166 114.155,75.400 155.403 C 97.087 210.505,173.279 213.988,199.854 161.093 C 223.810 113.412,184.854 57.468,131.600 63.075 M280.487 200.594 C 328.043 206.828,355.429 258.977,333.920 302.343 C 309.842 350.888,241.438 354.929,211.597 309.570 C 178.260 258.898,220.121 192.680,280.487 200.594 M261.780 218.748 C 221.463 226.106,206.208 275.720,235.401 304.537 C 266.236 334.974,318.870 314.242,321.052 270.800 C 322.667 238.643,293.435 212.971,261.780 218.748 " stroke="none" fill="#151616" fill-rule="evenodd"></path></g></svg>