<svg id="svg" version="1.1" xmlns="http://www.w3.org/2000/svg" xmlns:xlink="http://www.w3.org/1999/xlink" width="400" height="399.5555555555556" viewBox="0, 0, 400,399.5555555555556"><g id="svgg"><path id="path0" d="M187.007 184.715 C 187.000 218.260,187.014 218.174,180.610 224.357 C 166.289 238.182,142.873 224.825,147.215 205.308 C 150.600 190.092,169.356 184.612,180.858 195.479 C 183.564 198.035,183.453 198.212,183.327 191.548 L 183.217 185.693 181.039 184.517 C 161.552 173.995,137.063 188.047,137.063 209.751 C 137.063 242.261,184.450 249.940,195.257 219.181 L 196.380 215.984 196.509 186.713 L 196.637 157.443 191.825 157.443 L 187.013 157.443 187.007 184.715 M50.922 167.559 C 50.487 168.691,50.936 225.950,51.386 226.773 C 51.626 227.213,52.219 228.397,52.705 229.404 C 55.672 235.564,60.888 237.750,72.641 237.759 L 76.750 237.762 76.637 233.467 L 76.523 229.171 70.929 228.949 C 64.892 228.710,64.449 228.578,62.338 226.384 L 60.939 224.931 60.939 207.870 L 60.939 190.809 68.831 190.701 L 76.723 190.592 76.723 186.414 L 76.723 182.235 68.831 182.126 L 60.939 182.018 60.739 174.625 L 60.539 167.233 55.837 167.120 C 52.127 167.031,51.089 167.124,50.922 167.559 M261.789 181.428 C 230.089 185.813,227.288 228.928,258.139 237.607 C 269.294 240.745,284.365 236.090,289.966 227.776 C 290.486 227.004,291.392 225.654,291.980 224.775 C 296.095 218.623,297.117 207.186,294.229 199.600 C 289.470 187.100,275.869 179.481,261.789 181.428 M323.666 181.385 C 315.963 182.461,309.307 187.480,306.400 194.406 C 304.792 198.235,304.750 198.796,304.596 218.282 L 304.446 237.363 309.248 237.363 L 314.049 237.363 314.167 218.681 L 314.286 200.000 315.364 197.700 C 319.409 189.069,330.176 187.090,336.751 193.769 C 340.753 197.834,340.859 198.515,340.859 220.035 L 340.859 237.363 345.681 237.363 L 350.504 237.363 350.358 217.882 C 350.219 199.326,350.172 198.296,349.381 196.185 C 345.387 185.527,335.354 179.753,323.666 181.385 M83.602 202.498 L 83.716 222.777 85.212 225.910 C 88.997 233.837,95.729 238.066,105.170 238.449 C 115.924 238.885,123.880 234.053,127.494 224.891 L 128.644 221.978 128.658 202.098 L 128.671 182.218 124.101 182.218 L 119.530 182.218 119.405 201.099 L 119.281 219.980 118.114 222.360 C 113.082 232.624,99.581 232.633,94.172 222.378 L 92.907 219.980 92.789 201.099 L 92.671 182.218 88.080 182.218 L 83.489 182.218 83.602 202.498 M226.562 182.599 C 219.052 183.598,212.607 187.905,209.491 194.006 C 206.872 199.132,206.627 201.386,206.609 220.480 L 206.593 237.363 211.569 237.363 L 216.546 237.363 216.664 219.281 L 216.783 201.199 217.723 199.401 C 220.048 194.954,224.029 192.036,229.171 191.010 L 232.368 190.373 232.368 186.395 L 232.368 182.418 230.569 182.361 C 229.580 182.330,227.777 182.437,226.562 182.599 M272.246 190.581 C 286.739 195.568,291.087 213.170,280.459 223.828 C 266.840 237.485,245.001 227.359,246.304 207.992 C 247.136 195.627,260.616 186.580,272.246 190.581 " stroke="none" fill="#f7f7f7" fill-rule="evenodd"></path><path id="path1" d="M56.144 0.271 C 52.199 0.783,42.477 3.315,41.958 3.965 C 41.848 4.103,39.915 5.004,37.662 5.968 C 35.410 6.932,33.566 7.843,33.566 7.993 C 33.566 8.143,32.724 8.699,31.693 9.228 C 26.605 11.841,17.117 20.279,13.729 25.204 C 12.991 26.276,12.388 27.294,12.388 27.467 C 12.388 27.639,12.068 27.980,11.677 28.224 C 11.285 28.468,10.365 29.815,9.632 31.217 C 8.899 32.619,8.167 33.856,8.006 33.966 C 7.612 34.235,4.921 40.277,4.580 41.658 C 4.431 42.263,4.170 42.757,3.999 42.757 C 3.655 42.757,3.691 42.651,2.270 47.952 C -0.136 56.928,0.000 47.824,0.000 200.213 C 0.000 352.466,-0.144 342.795,2.259 351.648 C 2.826 353.736,3.379 355.849,3.489 356.344 C 3.600 356.838,3.836 357.243,4.016 357.243 C 4.195 357.243,4.462 357.647,4.610 358.142 C 5.025 359.532,7.678 365.410,7.992 365.634 C 8.146 365.744,8.855 366.913,9.568 368.232 C 10.281 369.550,11.207 370.928,11.626 371.293 C 12.045 371.658,12.388 372.081,12.388 372.234 C 12.388 372.387,12.927 373.193,13.586 374.026 C 14.246 374.858,14.785 375.642,14.785 375.768 C 14.785 376.061,23.547 384.815,23.840 384.815 C 23.961 384.815,24.742 385.355,25.574 386.014 C 26.407 386.673,27.244 387.213,27.434 387.213 C 27.624 387.213,27.980 387.533,28.224 387.924 C 28.468 388.315,29.815 389.235,31.217 389.968 C 32.619 390.702,33.883 391.486,34.025 391.712 C 34.168 391.938,34.887 392.345,35.624 392.617 C 37.555 393.328,42.123 395.350,42.358 395.597 C 43.034 396.309,50.484 398.181,55.842 398.986 C 61.922 399.899,337.923 399.922,343.995 399.010 C 349.778 398.142,356.993 396.327,357.642 395.578 C 357.752 395.451,359.550 394.674,361.638 393.852 C 363.726 393.029,365.616 392.123,365.838 391.838 C 366.059 391.553,367.228 390.789,368.435 390.140 C 371.650 388.412,372.352 387.950,373.939 386.517 C 374.728 385.804,375.673 385.127,376.038 385.011 C 376.403 384.895,377.286 384.073,378.000 383.185 C 378.714 382.296,379.733 381.404,380.266 381.201 C 380.798 380.999,381.399 380.398,381.601 379.866 C 381.803 379.334,382.696 378.314,383.584 377.600 C 384.473 376.886,385.294 376.003,385.410 375.638 C 385.526 375.273,386.204 374.329,386.916 373.540 C 388.350 371.953,388.812 371.251,390.540 368.035 C 391.189 366.829,391.953 365.660,392.238 365.438 C 392.523 365.216,393.429 363.327,394.252 361.239 C 395.074 359.151,395.851 357.353,395.978 357.243 C 396.727 356.594,398.541 349.379,399.410 343.595 C 400.434 336.774,400.271 61.493,399.238 55.145 C 398.286 49.293,396.670 42.957,395.976 42.358 C 395.848 42.248,395.065 40.450,394.236 38.362 C 393.407 36.274,392.485 34.372,392.187 34.135 C 391.889 33.898,391.182 32.783,390.616 31.656 C 389.458 29.351,386.139 24.745,383.545 21.846 C 381.931 20.041,381.082 19.193,377.888 16.196 C 375.875 14.308,369.944 9.937,368.631 9.374 C 367.972 9.092,366.893 8.396,366.234 7.827 C 365.574 7.259,364.855 6.794,364.635 6.795 C 364.072 6.795,358.289 4.266,358.019 3.901 C 357.758 3.546,354.991 2.692,349.451 1.255 L 345.455 0.218 201.399 0.167 C 122.168 0.138,56.803 0.185,56.144 0.271 M196.803 186.813 L 196.803 216.783 195.430 219.980 C 188.432 236.272,171.965 243.164,155.045 236.882 C 131.331 228.077,130.315 194.161,153.447 183.537 C 162.728 179.275,177.011 180.144,183.117 185.343 C 184.097 186.177,184.191 198.601,183.217 198.601 C 182.887 198.601,182.617 198.404,182.617 198.163 C 182.617 197.378,178.478 193.798,176.224 192.634 C 156.387 182.387,137.443 206.815,152.460 223.276 C 161.203 232.860,175.984 231.417,183.559 220.240 C 186.506 215.893,186.389 217.257,186.521 185.630 C 186.612 163.894,186.753 157.200,187.126 156.958 C 187.393 156.784,189.680 156.687,192.208 156.743 L 196.803 156.843 196.803 186.813 M61.048 174.126 L 61.156 181.818 69.139 181.818 L 77.123 181.818 77.123 186.414 C 77.123 188.941,76.988 191.036,76.823 191.070 C 76.658 191.103,73.197 191.183,69.131 191.246 C 65.065 191.310,61.603 191.372,61.439 191.385 C 60.779 191.437,61.093 223.360,61.768 224.781 C 63.111 227.611,65.449 228.478,72.128 228.620 C 77.537 228.735,77.123 228.321,77.123 233.609 L 77.123 238.162 72.627 238.159 C 59.965 238.149,54.318 235.463,51.518 228.116 L 50.549 225.574 50.435 196.462 C 50.348 174.478,50.436 167.211,50.793 166.780 C 51.165 166.332,52.298 166.234,56.103 166.322 L 60.939 166.434 61.048 174.126 M274.608 181.790 C 308.313 191.436,301.253 238.961,266.116 238.961 C 255.218 238.961,246.292 234.348,240.463 225.703 C 225.493 203.498,248.240 174.244,274.608 181.790 M335.668 182.019 C 341.258 183.881,345.879 187.906,348.463 193.165 C 350.769 197.857,350.849 198.732,350.849 219.235 L 350.849 237.762 345.673 237.762 L 340.496 237.762 340.378 219.081 L 340.260 200.400 339.130 197.955 C 334.518 187.976,320.976 187.603,316.203 197.324 L 315.085 199.600 314.885 218.581 L 314.685 237.562 309.491 237.562 L 304.296 237.562 304.296 218.581 C 304.296 203.714,304.416 199.124,304.850 197.403 C 308.057 184.692,322.319 177.573,335.668 182.019 M93.264 182.450 C 93.397 182.798,93.506 191.127,93.506 200.959 C 93.506 221.802,93.499 221.750,96.835 225.277 C 103.304 232.117,113.005 230.818,117.511 222.508 L 118.881 219.980 118.996 200.887 L 119.110 181.795 124.191 181.906 L 129.271 182.018 129.384 200.400 C 129.500 219.177,129.325 222.248,127.965 225.246 C 119.494 243.922,93.019 243.879,84.253 225.175 L 83.317 223.177 83.203 202.498 L 83.090 181.818 88.055 181.818 C 92.215 181.818,93.061 181.921,93.264 182.450 M232.882 186.179 C 233.016 191.044,233.082 190.940,229.555 191.439 C 224.759 192.118,220.424 195.254,218.163 199.679 L 217.183 201.598 217.067 219.692 L 216.952 237.785 211.673 237.674 L 206.394 237.562 206.394 219.181 C 206.394 199.568,206.396 199.544,208.464 195.005 C 211.199 189.003,217.500 183.926,223.776 182.667 C 224.985 182.424,226.334 182.151,226.773 182.060 C 227.213 181.969,228.741 181.922,230.170 181.956 L 232.767 182.018 232.882 186.179 M260.140 191.116 C 244.877 196.492,241.845 216.357,254.831 225.890 C 267.667 235.312,285.929 225.852,285.910 209.790 C 285.895 196.659,272.323 186.824,260.140 191.116 " stroke="none" fill="#040404" fill-rule="evenodd"></path><path id="path2" d="M69.018 182.113 L 76.696 182.235 76.832 186.522 L 76.968 190.809 76.945 186.414 L 76.923 182.018 69.131 182.004 L 61.339 181.991 69.018 182.113 M85.830 182.114 C 87.212 182.193,89.370 182.192,90.625 182.113 C 91.880 182.034,90.749 181.970,88.112 181.971 C 85.475 181.972,84.448 182.036,85.830 182.114 M121.794 182.114 C 123.176 182.193,125.334 182.192,126.589 182.113 C 127.844 182.034,126.713 181.970,124.076 181.971 C 121.439 181.972,120.412 182.036,121.794 182.114 M229.675 182.101 C 230.172 182.196,230.891 182.193,231.273 182.093 C 231.655 181.993,231.249 181.915,230.370 181.919 C 229.491 181.923,229.178 182.005,229.675 182.101 M76.873 233.566 C 76.874 235.984,76.939 236.922,77.019 235.650 C 77.099 234.378,77.098 232.400,77.017 231.254 C 76.937 230.108,76.872 231.149,76.873 233.566 M104.795 238.853 C 105.619 238.939,106.968 238.939,107.792 238.853 C 108.616 238.766,107.942 238.696,106.294 238.696 C 104.645 238.696,103.971 238.766,104.795 238.853 M164.935 238.854 C 165.869 238.938,167.398 238.938,168.332 238.854 C 169.266 238.770,168.501 238.701,166.633 238.701 C 164.765 238.701,164.001 238.770,164.935 238.854 M264.846 238.855 C 265.786 238.939,267.224 238.938,268.043 238.852 C 268.861 238.766,268.092 238.697,266.334 238.698 C 264.575 238.700,263.906 238.770,264.846 238.855 " stroke="none" fill="#747474" fill-rule="evenodd"></path><path id="path3" d="M186.802 157.530 C 186.694 157.812,186.654 170.360,186.713 185.415 L 186.819 212.787 186.916 185.115 L 187.013 157.443 191.816 157.443 L 196.619 157.443 196.511 185.986 C 196.452 201.685,196.540 214.286,196.706 213.989 C 196.872 213.691,196.962 200.802,196.906 185.345 L 196.803 157.243 191.900 157.130 C 188.200 157.046,186.949 157.144,186.802 157.530 M51.011 166.933 C 50.909 167.098,53.056 167.233,55.782 167.233 C 58.509 167.233,60.739 167.098,60.739 166.933 C 60.739 166.768,58.592 166.633,55.968 166.633 C 53.343 166.633,51.113 166.768,51.011 166.933 M83.207 201.875 C 83.157 212.796,83.252 221.815,83.417 221.917 C 83.689 222.085,83.684 206.910,83.406 189.011 C 83.346 185.165,83.256 190.953,83.207 201.875 M92.891 200.400 C 92.892 210.509,92.943 214.588,93.007 209.463 C 93.070 204.338,93.070 196.066,93.007 191.081 C 92.943 186.097,92.891 190.290,92.891 200.400 M119.265 200.000 C 119.265 209.890,119.317 213.879,119.380 208.864 C 119.444 203.849,119.444 195.757,119.380 190.882 C 119.317 186.007,119.265 190.110,119.265 200.000 M128.856 201.598 C 128.856 212.368,128.908 216.716,128.971 211.261 C 129.034 205.806,129.034 196.995,128.971 191.681 C 128.908 186.366,128.856 190.829,128.856 201.598 M226.074 182.500 C 226.568 182.595,227.378 182.595,227.872 182.500 C 228.367 182.405,227.962 182.327,226.973 182.327 C 225.984 182.327,225.579 182.405,226.074 182.500 M153.846 183.616 C 153.297 183.930,153.027 184.187,153.247 184.187 C 153.467 184.187,154.096 183.930,154.645 183.616 C 155.195 183.302,155.465 183.045,155.245 183.045 C 155.025 183.045,154.396 183.302,153.846 183.616 M344.056 187.612 C 344.802 188.382,345.501 189.011,345.611 189.011 C 345.721 189.011,345.201 188.382,344.456 187.612 C 343.710 186.843,343.010 186.214,342.900 186.214 C 342.790 186.214,343.310 186.843,344.056 187.612 M243.945 190.310 L 241.159 193.207 244.056 190.420 C 245.649 188.888,246.953 187.584,246.953 187.523 C 246.953 187.230,246.533 187.619,243.945 190.310 M287.712 189.610 C 288.458 190.380,289.158 191.009,289.268 191.009 C 289.378 191.009,288.857 190.380,288.112 189.610 C 287.366 188.841,286.666 188.212,286.557 188.212 C 286.447 188.212,286.967 188.841,287.712 189.610 M231.169 190.609 L 229.970 190.914 231.045 190.962 C 231.637 190.988,232.232 190.829,232.368 190.609 C 232.503 190.390,232.559 190.231,232.491 190.257 C 232.423 190.283,231.828 190.442,231.169 190.609 M61.000 190.909 C 60.897 191.074,63.180 191.162,66.071 191.105 C 75.919 190.910,76.936 190.768,69.055 190.689 C 64.727 190.645,61.102 190.744,61.000 190.909 M175.025 191.588 C 175.025 191.698,175.564 192.067,176.224 192.408 C 176.883 192.749,177.423 192.938,177.423 192.828 C 177.423 192.718,176.883 192.349,176.224 192.008 C 175.564 191.667,175.025 191.478,175.025 191.588 M221.035 195.274 L 218.382 197.942 221.179 195.392 C 222.717 193.990,224.051 192.790,224.143 192.725 C 224.234 192.660,224.169 192.607,223.999 192.607 C 223.828 192.607,222.495 193.808,221.035 195.274 M152.433 195.904 L 150.450 198.002 152.547 196.019 C 153.701 194.928,154.645 193.984,154.645 193.921 C 154.645 193.623,154.275 193.955,152.433 195.904 M180.996 195.894 C 182.191 197.153,183.255 198.097,183.360 197.992 C 183.464 197.888,183.471 197.757,183.375 197.702 C 183.279 197.647,182.215 196.703,181.011 195.605 L 178.821 193.607 180.996 195.894 M251.735 196.104 L 249.550 198.402 251.848 196.217 C 253.112 195.016,254.146 193.982,254.146 193.920 C 254.146 193.623,253.764 193.969,251.735 196.104 M207.193 199.001 C 207.039 199.910,206.997 200.737,207.100 200.840 C 207.202 200.942,207.406 200.276,207.552 199.361 C 207.699 198.445,207.741 197.617,207.645 197.522 C 207.550 197.427,207.346 198.092,207.193 199.001 M314.182 219.268 L 314.086 237.337 309.391 237.464 L 304.695 237.590 309.403 237.676 C 312.866 237.740,314.162 237.630,314.303 237.263 C 314.408 236.988,314.445 228.761,314.386 218.981 L 314.277 201.199 314.182 219.268 M340.653 219.680 L 340.659 237.562 345.355 237.582 L 350.051 237.602 345.459 237.470 L 340.867 237.337 340.757 219.568 L 340.647 201.798 340.653 219.680 M295.824 206.593 C 295.824 207.802,295.899 208.297,295.991 207.692 C 296.082 207.088,296.082 206.099,295.991 205.495 C 295.899 204.890,295.824 205.385,295.824 206.593 M146.788 209.790 C 146.788 211.439,146.858 212.113,146.944 211.289 C 147.031 210.465,147.031 209.116,146.944 208.292 C 146.858 207.468,146.788 208.142,146.788 209.790 M286.245 209.990 C 286.247 211.528,286.319 212.109,286.406 211.280 C 286.492 210.451,286.491 209.192,286.402 208.483 C 286.314 207.773,286.243 208.452,286.245 209.990 M136.783 209.790 C 136.783 210.999,136.858 211.494,136.950 210.889 C 137.041 210.285,137.041 209.296,136.950 208.691 C 136.858 208.087,136.783 208.581,136.783 209.790 M295.771 212.987 C 295.728 213.976,295.601 215.235,295.488 215.784 L 295.282 216.783 295.711 215.799 C 295.948 215.258,296.075 214.000,295.995 213.002 L 295.848 211.189 295.771 212.987 M195.233 218.810 C 195.086 219.395,195.043 219.952,195.137 220.046 C 195.232 220.140,195.429 219.738,195.576 219.152 C 195.723 218.567,195.766 218.010,195.672 217.916 C 195.578 217.822,195.380 218.224,195.233 218.810 M250.949 223.102 C 250.949 223.171,251.533 223.755,252.248 224.401 L 253.546 225.574 252.373 224.276 C 251.279 223.065,250.949 222.793,250.949 223.102 M178.821 225.650 C 177.722 226.661,177.363 227.120,178.022 226.670 C 179.145 225.904,181.362 223.755,180.989 223.794 C 180.895 223.804,179.920 224.639,178.821 225.650 M96.703 225.918 C 97.692 226.971,98.861 228.024,99.301 228.257 C 99.740 228.489,100.010 228.600,99.900 228.502 C 99.790 228.404,98.621 227.352,97.303 226.163 L 94.905 224.001 96.703 225.918 M153.646 224.941 C 154.423 225.835,156.643 227.571,156.643 227.285 C 156.643 227.206,155.789 226.440,154.745 225.582 C 153.701 224.724,153.207 224.436,153.646 224.941 M61.139 224.835 C 61.139 225.309,64.525 228.571,65.017 228.571 C 65.182 228.571,64.649 228.021,63.833 227.348 C 63.016 226.675,62.076 225.736,61.744 225.261 C 61.411 224.786,61.139 224.595,61.139 224.835 M244.356 230.170 C 245.438 231.269,246.414 232.168,246.523 232.168 C 246.633 232.168,245.838 231.269,244.755 230.170 C 243.673 229.071,242.697 228.172,242.587 228.172 C 242.478 228.172,243.273 229.071,244.356 230.170 M161.239 229.371 C 161.678 229.560,162.398 229.709,162.837 229.702 C 163.480 229.693,163.440 229.628,162.637 229.371 C 161.271 228.933,160.220 228.933,161.239 229.371 M171.029 229.371 C 170.226 229.628,170.187 229.693,170.829 229.702 C 171.269 229.709,171.988 229.560,172.428 229.371 C 173.446 228.933,172.395 228.933,171.029 229.371 M270.529 229.371 C 269.726 229.628,269.687 229.693,270.330 229.702 C 270.769 229.709,271.489 229.560,271.928 229.371 C 272.946 228.933,271.896 228.933,270.529 229.371 M89.311 232.168 C 90.616 233.487,91.773 234.565,91.883 234.565 C 91.993 234.565,91.015 233.487,89.710 232.168 C 88.405 230.849,87.248 229.770,87.138 229.770 C 87.028 229.770,88.006 230.849,89.311 232.168 M185.614 232.431 C 183.904 233.997,183.852 234.084,185.253 233.030 C 186.733 231.917,188.139 230.546,187.761 230.585 C 187.679 230.593,186.713 231.424,185.614 232.431 M122.656 232.468 L 121.279 233.966 122.777 232.589 C 124.172 231.307,124.459 230.969,124.154 230.969 C 124.088 230.969,123.413 231.643,122.656 232.468 M65.534 237.789 C 67.787 238.090,76.990 238.278,76.690 238.017 C 76.598 237.937,73.556 237.787,69.930 237.683 C 66.304 237.580,64.326 237.627,65.534 237.789 M209.291 237.659 C 210.664 237.737,212.912 237.737,214.286 237.659 C 215.659 237.580,214.535 237.517,211.788 237.517 C 209.041 237.517,207.917 237.580,209.291 237.659 " stroke="none" fill="#7c7c7c" fill-rule="evenodd"></path><path id="path4" d="M188.811 156.905 C 192.643 157.198,196.914 157.219,196.743 156.943 C 196.640 156.778,194.454 156.675,191.885 156.713 C 189.315 156.752,187.932 156.838,188.811 156.905 M55.935 166.526 L 60.722 166.658 60.844 174.238 L 60.966 181.819 60.952 174.126 L 60.939 166.434 56.043 166.414 L 51.148 166.395 55.935 166.526 M50.539 195.405 C 50.539 211.119,50.589 217.547,50.649 209.690 C 50.710 201.833,50.710 188.976,50.649 181.119 C 50.589 173.262,50.539 179.690,50.539 195.405 M165.345 180.912 C 166.285 180.997,167.724 180.996,168.542 180.910 C 169.360 180.824,168.591 180.755,166.833 180.756 C 165.075 180.758,164.405 180.828,165.345 180.912 M264.436 180.912 C 265.370 180.996,266.898 180.996,267.832 180.912 C 268.766 180.828,268.002 180.759,266.134 180.759 C 264.266 180.759,263.501 180.828,264.436 180.912 M326.174 180.910 C 326.998 180.997,328.347 180.997,329.171 180.910 C 329.995 180.824,329.321 180.754,327.672 180.754 C 326.024 180.754,325.350 180.824,326.174 180.910 M129.071 201.119 L 129.270 220.380 129.374 201.423 C 129.432 190.996,129.342 182.329,129.175 182.162 C 129.008 181.994,128.961 190.525,129.071 201.119 M232.095 182.128 C 232.488 182.405,232.589 183.567,232.494 186.735 C 232.425 189.066,232.509 190.830,232.682 190.656 C 233.296 190.039,232.828 182.100,232.168 181.920 C 231.697 181.792,231.682 181.837,232.095 182.128 M93.291 200.799 C 93.291 210.909,93.343 214.988,93.406 209.863 C 93.470 204.738,93.470 196.466,93.406 191.481 C 93.343 186.496,93.291 190.689,93.291 200.799 M183.579 192.208 C 183.579 195.834,183.640 197.318,183.714 195.504 C 183.788 193.691,183.788 190.724,183.714 188.911 C 183.640 187.098,183.579 188.581,183.579 192.208 M243.945 189.910 L 241.159 192.807 244.056 190.021 C 245.649 188.488,246.953 187.184,246.953 187.124 C 246.953 186.830,246.533 187.219,243.945 189.910 M165.534 190.096 C 166.139 190.188,167.128 190.188,167.732 190.096 C 168.337 190.005,167.842 189.930,166.633 189.930 C 165.425 189.930,164.930 190.005,165.534 190.096 M265.242 190.100 C 265.960 190.189,267.039 190.187,267.640 190.096 C 268.240 190.005,267.652 189.932,266.334 189.934 C 265.015 189.936,264.524 190.011,265.242 190.100 M326.773 190.092 C 327.268 190.187,328.077 190.187,328.571 190.092 C 329.066 189.997,328.661 189.919,327.672 189.919 C 326.683 189.919,326.279 189.997,326.773 190.092 M60.922 191.509 C 60.816 191.784,60.779 199.112,60.839 207.793 L 60.949 223.576 61.044 207.526 C 61.117 195.131,61.253 191.429,61.638 191.274 C 62.030 191.116,62.027 191.065,61.626 191.041 C 61.344 191.023,61.027 191.234,60.922 191.509 M67.632 191.303 C 68.676 191.385,70.385 191.385,71.429 191.303 C 72.473 191.220,71.618 191.153,69.530 191.153 C 67.443 191.153,66.588 191.220,67.632 191.303 M229.275 191.292 C 229.772 191.387,230.492 191.384,230.874 191.284 C 231.256 191.184,230.849 191.105,229.970 191.110 C 229.091 191.114,228.778 191.196,229.275 191.292 M335.265 192.732 C 335.265 192.801,335.849 193.386,336.563 194.031 L 337.862 195.205 336.688 193.906 C 335.594 192.696,335.265 192.424,335.265 192.732 M152.832 195.904 L 150.849 198.002 152.947 196.019 C 154.101 194.928,155.045 193.984,155.045 193.921 C 155.045 193.623,154.675 193.955,152.832 195.904 M178.621 193.931 C 178.621 194.000,179.206 194.584,179.920 195.230 L 181.219 196.404 180.045 195.105 C 178.951 193.894,178.621 193.623,178.621 193.931 M251.812 196.369 C 250.458 197.779,249.351 199.067,249.351 199.233 C 249.351 199.398,249.404 199.459,249.468 199.367 C 249.533 199.276,250.730 197.987,252.129 196.503 C 253.528 195.020,254.582 193.806,254.472 193.806 C 254.362 193.806,253.165 194.959,251.812 196.369 M338.739 197.198 C 339.105 197.964,339.475 198.520,339.562 198.434 C 339.744 198.251,338.531 195.804,338.258 195.804 C 338.157 195.804,338.374 196.431,338.739 197.198 M206.702 200.999 C 206.702 201.988,206.780 202.393,206.875 201.898 C 206.971 201.404,206.971 200.594,206.875 200.100 C 206.780 199.605,206.702 200.010,206.702 200.999 M350.634 218.781 C 350.634 229.331,350.686 233.589,350.749 228.244 C 350.812 222.899,350.812 214.268,350.749 209.063 C 350.686 203.859,350.634 208.232,350.634 218.781 M314.670 219.181 C 314.670 229.291,314.722 233.369,314.785 228.244 C 314.848 223.119,314.848 214.848,314.785 209.863 C 314.721 204.878,314.670 209.071,314.670 219.181 M304.279 219.181 C 304.279 228.412,304.331 232.131,304.395 227.446 C 304.459 222.761,304.459 215.208,304.395 210.662 C 304.331 206.117,304.279 209.950,304.279 219.181 M206.377 220.180 C 206.377 229.740,206.429 233.651,206.493 228.871 C 206.557 224.091,206.557 216.269,206.493 211.489 C 206.429 206.708,206.377 210.619,206.377 220.180 M216.767 220.380 C 216.767 230.050,216.819 233.949,216.883 229.044 C 216.946 224.139,216.946 216.227,216.883 211.461 C 216.819 206.696,216.767 210.709,216.767 220.380 M236.278 205.994 C 236.281 207.093,236.359 207.495,236.451 206.888 C 236.542 206.280,236.540 205.381,236.445 204.890 C 236.350 204.398,236.275 204.895,236.278 205.994 M246.646 206.194 C 246.646 206.963,246.728 207.278,246.829 206.893 C 246.929 206.508,246.929 205.879,246.829 205.495 C 246.728 205.110,246.646 205.425,246.646 206.194 M296.244 209.790 C 296.244 211.658,296.312 212.423,296.396 211.489 C 296.481 210.554,296.481 209.026,296.396 208.092 C 296.312 207.158,296.244 207.922,296.244 209.790 M246.278 209.990 C 246.280 211.309,246.355 211.800,246.443 211.082 C 246.532 210.364,246.531 209.285,246.439 208.684 C 246.348 208.084,246.275 208.671,246.278 209.990 M235.873 209.790 C 235.873 210.779,235.951 211.184,236.046 210.689 C 236.141 210.195,236.141 209.386,236.046 208.891 C 235.951 208.397,235.873 208.801,235.873 209.790 M236.278 213.986 C 236.281 215.085,236.359 215.487,236.451 214.880 C 236.542 214.272,236.540 213.373,236.445 212.882 C 236.350 212.390,236.275 212.887,236.278 213.986 M196.253 215.984 C 196.220 216.424,196.100 217.233,195.987 217.782 L 195.782 218.781 196.210 217.801 C 196.445 217.262,196.565 216.453,196.475 216.003 C 196.317 215.206,196.311 215.205,196.253 215.984 M183.017 220.979 C 182.547 221.638,182.253 222.178,182.363 222.178 C 182.473 222.178,182.947 221.638,183.417 220.979 C 183.886 220.320,184.180 219.780,184.070 219.780 C 183.961 219.780,183.486 220.320,183.017 220.979 M252.148 223.976 C 252.893 224.745,253.593 225.375,253.703 225.375 C 253.813 225.375,253.293 224.745,252.547 223.976 C 251.802 223.207,251.102 222.577,250.992 222.577 C 250.882 222.577,251.402 223.207,252.148 223.976 M96.903 225.774 C 97.985 226.873,98.961 227.772,99.071 227.772 C 99.181 227.772,98.385 226.873,97.303 225.774 C 96.220 224.675,95.245 223.776,95.135 223.776 C 95.025 223.776,95.821 224.675,96.903 225.774 M50.842 225.375 C 50.842 226.144,50.924 226.459,51.025 226.074 C 51.125 225.689,51.125 225.060,51.025 224.675 C 50.924 224.291,50.842 224.605,50.842 225.375 M114.486 226.441 C 113.606 227.230,113.247 227.688,113.686 227.460 C 114.427 227.077,116.634 224.954,116.253 224.992 C 116.160 225.001,115.365 225.653,114.486 226.441 M291.307 226.274 C 290.719 227.077,290.623 227.356,291.054 227.006 C 291.710 226.474,292.700 224.975,292.397 224.975 C 292.321 224.975,291.830 225.559,291.307 226.274 M190.817 227.672 C 189.959 228.716,189.671 229.211,190.176 228.771 C 191.070 227.994,192.805 225.774,192.519 225.774 C 192.441 225.774,191.675 226.628,190.817 227.672 M176.424 227.000 C 175.764 227.422,175.430 227.769,175.680 227.770 C 175.930 227.771,176.560 227.419,177.079 226.986 C 178.267 225.997,177.981 226.003,176.424 227.000 M66.334 228.603 C 66.883 228.762,69.131 228.888,71.329 228.885 C 76.324 228.877,75.526 228.668,69.730 228.467 C 67.313 228.383,65.784 228.444,66.334 228.603 M243.956 230.112 C 245.055 231.276,246.314 232.419,246.753 232.652 C 247.193 232.885,247.463 232.997,247.353 232.901 C 247.243 232.805,245.984 231.662,244.555 230.361 L 241.958 227.996 243.956 230.112 M165.056 229.792 C 165.590 230.129,168.573 230.351,168.198 230.025 C 168.107 229.945,167.232 229.778,166.255 229.653 C 165.105 229.506,164.681 229.555,165.056 229.792 M89.311 232.567 C 90.616 233.886,91.773 234.965,91.883 234.965 C 91.993 234.965,91.015 233.886,89.710 232.567 C 88.405 231.249,87.248 230.170,87.138 230.170 C 87.028 230.170,88.006 231.249,89.311 232.567 M145.854 231.094 C 145.854 231.163,146.439 231.747,147.153 232.393 L 148.452 233.566 147.278 232.268 C 146.184 231.057,145.854 230.785,145.854 231.094 M55.546 233.903 C 56.095 234.527,56.903 235.224,57.343 235.450 C 58.184 235.884,58.159 235.858,55.946 233.963 L 54.548 232.767 55.546 233.903 M250.893 235.341 C 251.412 235.794,252.027 236.164,252.259 236.164 C 252.750 236.164,252.727 236.144,251.149 235.220 L 249.950 234.518 250.893 235.341 M60.340 236.945 C 60.669 237.168,61.284 237.353,61.705 237.357 C 62.727 237.365,62.408 237.136,60.939 236.807 C 60.064 236.611,59.902 236.649,60.340 236.945 M259.740 238.548 C 260.730 238.878,263.624 239.095,263.303 238.815 C 263.212 238.735,262.148 238.567,260.939 238.442 C 259.520 238.295,259.095 238.333,259.740 238.548 M101.598 238.837 C 101.983 238.937,102.612 238.937,102.997 238.837 C 103.382 238.736,103.067 238.654,102.298 238.654 C 101.528 238.654,101.214 238.736,101.598 238.837 M109.590 238.837 C 109.975 238.937,110.604 238.937,110.989 238.837 C 111.374 238.736,111.059 238.654,110.290 238.654 C 109.520 238.654,109.206 238.736,109.590 238.837 M161.538 238.837 C 161.923 238.937,162.552 238.937,162.937 238.837 C 163.322 238.736,163.007 238.654,162.238 238.654 C 161.469 238.654,161.154 238.736,161.538 238.837 M170.534 238.844 C 171.031 238.940,171.750 238.936,172.133 238.836 C 172.515 238.736,172.108 238.658,171.229 238.662 C 170.350 238.667,170.037 238.748,170.534 238.844 M269.830 238.837 C 270.215 238.937,270.844 238.937,271.229 238.837 C 271.613 238.736,271.299 238.654,270.529 238.654 C 269.760 238.654,269.446 238.736,269.830 238.837 " stroke="none" fill="#585858" fill-rule="evenodd"></path></g></svg>